# xmcd
#
# Track frame offsets:
#	150
#	13545
#	26827
#	40097
#	55790
#	69615
#	83807
#	98162
#	112077
#	125332
#	137415
#	149100
#
# Disc length: 2178 seconds
#
# Revision: 1
# Processed by: cddbd v1.5.2PL0 Copyright (c) Steve Scherf et al.
# Submitted via: EZCDAudioConverter 5.1.1.1
#
DISCID=a608800c
DTITLE=Διάφοροι - Τα μεγάλα λαϊκά του '60
DYEAR=1996
DGENRE=country
TTITLE0=Στέλιος Καζαντζίδης - Στα βράχια της Πειραϊκής
TTITLE1=Μανώλης Καναρίδης, Σταύρος Χατζηδάκης, Λουκάς - Ο μαθητής
TTITLE2=Τόλης Βοσκόπουλος - Αγωνία
TTITLE3=Μαρινέλλα - Άνοιξε πέτρα
TTITLE4=Δημήτρης Μητροπάνος - Θεσσαλονίκη
TTITLE5=Δούκισσα - Αναμνήσεις
TTITLE6=Νίκος Ξανθόπουλος - Ρίξτε στο γυαλί φαρμάκι
TTITLE7=Νίκος Ξανθόπουλος - Πετραδάκι, πετραδάκι
TTITLE8=Τόλης Βοσκόπουλος, Δούκισσα - Του χωρισμού η ώρα
TTITLE9=Δούκισσα - Που πας χωρίς αγάπη
TTITLE10=Θεόδωρος Κανακάρης - Στης Λαρίσης το ποτάμι
TTITLE11=Μαρινέλλα - Ποιος ειν'αυτός
EXTD=
EXTT0=
EXTT1=
EXTT2=
EXTT3=
EXTT4=
EXTT5=
EXTT6=
EXTT7=
EXTT8=
EXTT9=
EXTT10=
EXTT11=
PLAYORDER=
